<?xml version="1.0" encoding="UTF-8"?>
<svg version="1.1" xmlns="http://www.w3.org/2000/svg" width="1024" height="1024">
    <path d="M0 0 C15.34533914 12.93822712 25.03526586 29.12815912 27.58984375 49.18359375 C27.95606186 54.32899354 28.07815017 59.46415062 28.08984375 64.62109375 C28.09252258 65.32269623 28.09520142 66.02429871 28.09796143 66.74716187 C28.08786896 78.98428135 26.48197455 89.88899065 21.58984375 101.18359375 C21.12191406 102.27285156 20.65398437 103.36210938 20.171875 104.484375 C16.78127955 111.3510431 11.96140344 116.78420214 6.58984375 122.18359375 C5.99816406 122.81007813 5.40648437 123.4365625 4.796875 124.08203125 C-1.4886669 130.2149441 -9.4625103 133.70322763 -17.41015625 137.18359375 C-18.60125 137.71726562 -19.79234375 138.2509375 -21.01953125 138.80078125 C-40.09579346 146.04648599 -65.12634059 144.48310938 -83.77734375 136.34765625 C-90.81228178 133.07764937 -97.60611412 129.37802095 -103.41015625 124.18359375 C-104.13332031 123.56355469 -104.85648438 122.94351563 -105.6015625 122.3046875 C-116.31105101 112.46500516 -121.53637677 99.90698308 -125.41015625 86.18359375 C-125.77625 85.01570312 -126.14234375 83.8478125 -126.51953125 82.64453125 C-131.71800378 61.29017278 -127.42192647 36.66211511 -116.51318359 17.93017578 C-113.69545559 13.46846127 -110.20287112 9.81748471 -106.41015625 6.18359375 C-105.65089844 5.405 -104.89164063 4.62640625 -104.109375 3.82421875 C-95.68538351 -4.39296444 -84.83197243 -9.96597058 -73.41015625 -12.81640625 C-72.60449219 -13.02007813 -71.79882812 -13.22375 -70.96875 -13.43359375 C-47.05148526 -18.40076395 -19.59080529 -15.21811454 0 0 Z " fill="#399FED" transform="translate(360.41015625,601.81640625)"/>
    <path d="M0 0 C1.14292007 -0.00945648 2.28584015 -0.01891296 3.46339417 -0.02865601 C4.70387009 -0.02258331 5.94434601 -0.01651062 7.22241211 -0.01025391 C8.50723984 -0.01312408 9.79206757 -0.01599426 11.11582947 -0.01895142 C13.84718569 -0.02338104 16.57824824 -0.0169394 19.30957031 -0.00292969 C22.75564432 0.01391124 26.20101071 0.00421145 29.64705849 -0.0132618 C76.64514663 -0.2152794 76.64514663 -0.2152794 91.20288086 13.73974609 C98.93240154 22.90166047 101.17556552 32.75934634 100.61206055 44.43115234 C99.81922109 53.30741088 96.08679872 60.55287047 89.43725586 66.38818359 C84.22014342 70.45540187 77.22379013 74.38818359 70.43725586 74.38818359 C70.43725586 75.04818359 70.43725586 75.70818359 70.43725586 76.38818359 C71.74436523 76.51773438 71.74436523 76.51773438 73.07788086 76.64990234 C85.4143062 78.1051733 98.13326138 81.43783341 106.18725586 91.59521484 C111.27872938 98.97540362 112.76502477 104.42762418 112.68725586 113.32568359 C112.69885742 114.64729492 112.69885742 114.64729492 112.71069336 115.99560547 C112.68310573 125.20297664 109.92158274 133.49095296 103.61303711 140.38037109 C88.76994252 153.96953038 68.35929746 154.71311051 49.23413086 154.61865234 C47.61842892 154.61745721 46.00272628 154.61700809 44.38702393 154.61726379 C41.03214046 154.61571325 37.67736588 154.6075259 34.32250977 154.59399414 C30.01493861 154.57684069 25.70748461 154.57318524 21.39988327 154.57393932 C18.07831701 154.57366837 14.75677653 154.56820189 11.43521881 154.56093788 C9.84512781 154.55775213 8.2550339 154.55578402 6.66493988 154.55504417 C4.45845972 154.55288892 2.25210724 154.54416749 0.0456543 154.53344727 C-1.20975159 154.52963547 -2.46515747 154.52582367 -3.75860596 154.52189636 C-6.56274414 154.38818359 -6.56274414 154.38818359 -7.56274414 153.38818359 C-7.66324628 150.62416952 -7.69890489 147.88511133 -7.69213867 145.12060547 C-7.69389099 144.25399796 -7.69564331 143.38739044 -7.69744873 142.49452209 C-7.70186839 139.61530586 -7.69892886 136.73615051 -7.69555664 133.85693359 C-7.69622965 131.86535632 -7.69719964 129.87377914 -7.69845581 127.88220215 C-7.69993294 123.70238465 -7.69777775 119.52258847 -7.69311523 115.34277344 C-7.68741794 109.97215833 -7.69069687 104.60159319 -7.6966877 99.23097992 C-7.70029291 95.11675639 -7.69915491 91.0025448 -7.69655991 86.88832092 C-7.69589053 84.90747573 -7.69671944 82.92662947 -7.69903946 80.94578552 C-7.70156533 78.18241484 -7.69772632 75.41912625 -7.69213867 72.65576172 C-7.6941629 71.82871231 -7.69618713 71.0016629 -7.69827271 70.14955139 C-7.67700658 64.50244603 -7.67700658 64.50244603 -6.56274414 63.38818359 C-4.76978829 63.27531484 -2.97245204 63.2313723 -1.17602539 63.21459961 C-0.02392578 63.20110977 1.12817383 63.18761993 2.31518555 63.17372131 C3.57234375 63.16328293 4.82950195 63.15284454 6.12475586 63.14208984 C8.09134189 63.11757986 10.05792786 63.09305861 12.02450562 63.06789303 C16.88481969 63.00716417 21.74523353 62.95676864 26.60571289 62.91137695 C29.32544475 62.88558943 32.04503424 62.85470431 34.76464844 62.81858826 C37.3255915 62.78496661 39.88664902 62.75895756 42.44775391 62.74159241 C51.88913038 62.60813355 60.64892964 62.15154499 68.43725586 56.38818359 C72.00094663 50.75525302 72.27646768 44.93789421 71.43725586 38.38818359 C70.16707279 34.05038859 67.98835014 31.75723447 64.21191406 29.22827148 C58.58888243 26.56552382 52.76101373 26.83516375 46.64537621 26.87176323 C44.50535907 26.88449973 42.36661144 26.87301247 40.22663879 26.85572815 C36.46143952 26.82916364 32.69655727 26.82342795 28.93127441 26.8248291 C22.88807237 26.82706792 16.84525875 26.81297899 10.80220985 26.76924324 C8.69533876 26.75940627 6.58908189 26.7681155 4.48222351 26.77793884 C3.20692276 26.77105545 1.93162201 26.76417206 0.61767578 26.75708008 C-0.50625076 26.75804184 -1.63017731 26.7590036 -2.78816223 26.75999451 C-5.56274414 26.38818359 -5.56274414 26.38818359 -7.42475891 24.9981842 C-8.93930902 22.85542651 -8.95018035 21.43665565 -8.96118164 18.82568359 C-8.96504883 17.94654297 -8.96891602 17.06740234 -8.97290039 16.16162109 C-8.96129883 15.24638672 -8.94969727 14.33115234 -8.93774414 13.38818359 C-8.95514648 12.01533203 -8.95514648 12.01533203 -8.97290039 10.61474609 C-8.9690332 9.73560547 -8.96516602 8.85646484 -8.96118164 7.95068359 C-8.95610596 6.74605469 -8.95610596 6.74605469 -8.95092773 5.51708984 C-8.019423 0.40846012 -4.64701253 0.01103687 0 0 Z " fill="#389EED" transform="translate(552.562744140625,587.61181640625)"/>
    <path d="M0 0 C13.3911356 11.54478205 22.61756104 25.87707145 27.453125 42.91015625 C27.70141556 43.75199966 27.94970612 44.59384308 28.20552063 45.4611969 C30.82921636 55.38255989 30.90918876 64.9169505 30.88671875 75.09765625 C30.89129232 76.93123566 30.89660134 78.76481338 30.90260315 80.59838867 C30.91148292 84.42080702 30.90916936 88.24301585 30.89916992 92.06542969 C30.88767453 96.9303221 30.90792691 101.79448921 30.93708706 106.6592865 C30.95555061 110.43945806 30.95513671 114.21945891 30.94944954 117.99966431 C30.94929763 119.79197203 30.95523233 121.58429231 30.96774101 123.3765564 C31.05870133 138.53885997 29.55881965 152.40774046 18.5703125 163.875 C10.53802957 171.32454868 3.05363728 174.07464702 -7.859375 173.97265625 C-9.11363281 173.96363281 -10.36789062 173.95460938 -11.66015625 173.9453125 C-13.08908203 173.92791016 -13.08908203 173.92791016 -14.546875 173.91015625 C-13.9925175 170.26444421 -13.04085872 167.99323085 -11.02587891 164.94262695 C-6.7133437 156.50158677 -7.83061422 146.62515316 -7.8828125 137.390625 C-7.87943855 135.283714 -7.87458112 133.1768049 -7.86831665 131.06990051 C-7.86096788 126.66449362 -7.87158334 122.25959551 -7.89501953 117.85424805 C-7.92345284 112.23917782 -7.90712448 106.62530564 -7.87715721 101.01027966 C-7.8589852 96.6613126 -7.86488837 92.31262383 -7.87779617 87.96364784 C-7.88110562 85.8950314 -7.8771309 83.82638878 -7.86539841 81.75780296 C-7.81377923 70.09692645 -8.10392997 60.47009272 -13.546875 49.91015625 C-14.01290131 48.98087814 -14.47892761 48.05160004 -14.95907593 47.09416199 C-20.48201859 36.55320385 -29.46200756 29.77941789 -40.546875 25.91015625 C-51.41716402 22.81003777 -61.78918762 22.450527 -73 22.4765625 C-74.75291136 22.47198508 -76.50582095 22.46667497 -78.25872803 22.4606781 C-81.91295714 22.451805 -85.56696706 22.45410188 -89.22119141 22.46411133 C-93.85128802 22.47557221 -98.4806186 22.4554038 -103.11061478 22.42619419 C-106.72628404 22.40764091 -110.34177634 22.40816256 -113.95748138 22.41383171 C-115.66192445 22.41398271 -117.36638129 22.40812628 -119.07077789 22.39554024 C-133.74849837 22.30241365 -149.20226668 23.50456307 -162.234375 30.91015625 C-162.85763672 31.24015625 -163.48089844 31.57015625 -164.12304688 31.91015625 C-166.60178642 33.23352919 -169.04089374 34.60716414 -171.45166016 36.05078125 C-176.25797755 38.91015625 -176.25797755 38.91015625 -179.546875 38.91015625 C-178.95273119 35.49276581 -177.77969613 33.69995214 -175.45703125 31.15234375 C-174.8242627 30.45592773 -174.19149414 29.75951172 -173.53955078 29.04199219 C-172.88196777 28.33848633 -172.22438477 27.63498047 -171.546875 26.91015625 C-170.9369873 26.25563477 -170.32709961 25.60111328 -169.69873047 24.92675781 C-150.93945798 5.11895381 -129.06626513 -8.90081727 -102.546875 -16.08984375 C-101.83966309 -16.29722168 -101.13245117 -16.50459961 -100.40380859 -16.71826172 C-67.15410423 -26.23645045 -27.10259705 -22.2390942 0 0 Z " fill="#389FED" transform="translate(576.546875,272.08984375)"/>
    <path d="M0 0 C4.21370204 0.4992538 6.67389749 3.07751653 9.625 5.875 C10.15134033 6.36822754 10.67768066 6.86145508 11.2199707 7.36962891 C37.08075086 31.90131697 54.75269939 66.20088534 56.12451172 102.27416992 C56.74848735 131.84712664 54.09357439 159.71520466 32.8190918 182.27490234 C12.71122666 202.77522159 -10.1214947 210.26257756 -38.49195099 210.607481 C-46.06299458 210.66612873 -53.63260512 210.62971636 -61.20355225 210.57647705 C-65.11475396 210.55776473 -69.02554352 210.57266982 -72.93673897 210.5875864 C-76.73744283 210.59819842 -80.5379071 210.58918456 -84.33858871 210.57420158 C-86.13811403 210.5690664 -87.93766482 210.56944401 -89.73718643 210.57574654 C-105.3558087 210.60998285 -115.93923 208.30449344 -127.71484375 197.4140625 C-134.52188169 190.31257254 -138.17834181 179.98071241 -138.0625 170.25 C-138.05347656 169.26515625 -138.04445313 168.2803125 -138.03515625 167.265625 C-138.02355469 166.51796875 -138.01195312 165.7703125 -138 165 C-133.91581311 165.31416822 -131.26642802 166.35959109 -127.87335205 168.51133728 C-122.95541315 171.29420239 -119.0363868 171.70908313 -113.46386719 171.63110352 C-112.55684555 171.63825882 -111.64982391 171.64541412 -110.71531677 171.65278625 C-107.74197694 171.66957706 -104.77016613 171.65032075 -101.796875 171.62890625 C-99.71095659 171.62973612 -97.62503825 171.63219995 -95.53912354 171.63621521 C-91.17480702 171.63906705 -86.81100539 171.62443689 -82.44677734 171.59692383 C-76.88448575 171.56292759 -71.32311934 171.56883719 -65.76078415 171.5875864 C-61.45386206 171.59821801 -57.14715067 171.58916148 -52.84024811 171.57420158 C-50.79117715 171.56905868 -48.74208381 171.56945367 -46.69301605 171.57574654 C-30.91742643 171.60600081 -18.34270445 170.25224031 -5 161 C-3.948125 160.278125 -2.89625 159.55625 -1.8125 158.8125 C7.79833078 149.20166922 13.15589422 136.76738936 13.28216553 123.26075745 C13.27968811 122.46419235 13.27721069 121.66762726 13.2746582 120.84692383 C13.27976913 119.98052277 13.28488007 119.1141217 13.29014587 118.22146606 C13.30394063 115.383249 13.3030922 112.54527767 13.30078125 109.70703125 C13.30467484 107.71318982 13.30901086 105.71934921 13.31376648 103.72550964 C13.32120783 99.55387683 13.32095338 95.38232868 13.31567383 91.21069336 C13.30989402 85.89976276 13.32678447 80.58918259 13.3500185 75.27830982 C13.36484995 71.1609855 13.36561461 67.04374363 13.36250877 62.92639732 C13.36301766 60.97024532 13.36817294 59.01408817 13.37832069 57.05796242 C13.44224755 43.00837019 12.53908992 30.20922116 7.0625 17.0625 C6.57910156 15.87785156 6.09570312 14.69320313 5.59765625 13.47265625 C4.42668567 10.92744146 3.23250121 8.63808272 1.80859375 6.24609375 C0 3 0 3 0 0 Z " fill="#379EED" transform="translate(602,285)"/>
    <path d="M0 0 C1.99148852 -0.00524821 3.98297456 -0.01152903 5.97445679 -0.01878357 C10.12469277 -0.02912767 14.27458456 -0.02471078 18.42480469 -0.01000977 C23.71475495 0.00720542 29.00362168 -0.01638302 34.29345131 -0.05149937 C38.39786832 -0.07356419 42.50202938 -0.07201056 46.60648727 -0.06373405 C48.55592414 -0.06292022 50.50538089 -0.06967368 52.45476151 -0.08450508 C67.40578902 -0.18088546 78.7587553 1.30495724 89.95703125 12.1796875 C98.55154962 21.54020573 101.58827172 30.65076945 101.25390625 43.29296875 C101.21910156 44.04320312 101.18429687 44.7934375 101.1484375 45.56640625 C95.98490639 45.56640625 93.34980078 43.56806353 89 40.9765625 C83.3932317 38.20390037 77.44461088 38.40578825 71.32006836 38.37353516 C70.45249908 38.36535767 69.58492981 38.35718018 68.69107056 38.34875488 C65.83181423 38.32403031 62.97260722 38.30741552 60.11328125 38.29296875 C58.63992908 38.28498323 58.63992908 38.28498323 57.13681221 38.2768364 C51.93472196 38.25015724 46.73265524 38.23076817 41.53051758 38.21630859 C37.2464451 38.20299293 32.96285157 38.17517607 28.67895508 38.13427734 C23.48482565 38.08470335 18.291129 38.06015739 13.09677315 38.05308151 C11.12858917 38.04641021 9.16041329 38.03129715 7.19236565 38.0071907 C-9.40126319 37.81557634 -21.95758426 40.1418862 -34.8515625 51.56640625 C-43.08664834 60.07123479 -48.77481367 71.17203453 -49.40625 82.98828125 C-49.44829559 83.76822449 -49.49034119 84.54816772 -49.53366089 85.35174561 C-50.05370798 96.25041876 -50.00048291 107.16042196 -49.98193359 118.06884766 C-49.97659183 121.79594019 -49.98190009 125.52291119 -49.98828125 129.25 C-49.99253759 140.41825304 -49.91695673 151.57796969 -49.46875 162.73828125 C-49.4232048 164.02052582 -49.4232048 164.02052582 -49.3767395 165.32867432 C-48.99153713 173.53038083 -47.5917141 181.35736201 -44.5390625 189.00390625 C-44.1059375 190.091875 -43.6728125 191.17984375 -43.2265625 192.30078125 C-41.50531984 196.38873257 -39.67528829 200.41685328 -37.76953125 204.421875 C-36.8515625 206.56640625 -36.8515625 206.56640625 -36.8515625 208.56640625 C-43.12930386 206.44780792 -47.12508351 202.04565404 -51.8515625 197.56640625 C-52.52445312 196.95796875 -53.19734375 196.34953125 -53.890625 195.72265625 C-76.10772412 174.876983 -90.66813369 140.82383489 -92.02856445 110.63916016 C-92.05460438 109.27385854 -92.07481669 107.90843598 -92.08984375 106.54296875 C-92.09968292 105.80354034 -92.10952209 105.06411194 -92.11965942 104.30227661 C-92.43160308 74.831525 -88.5663536 48.54899645 -67.4765625 26.10546875 C-60.04139079 18.9137104 -52.07885894 12.84355031 -42.8515625 8.12890625 C-42.26044678 7.8232373 -41.66933105 7.51756836 -41.06030273 7.20263672 C-27.54555743 0.69986884 -14.69335915 -0.04756538 0 0 Z " fill="#379EED" transform="translate(457.8515625,303.43359375)"/>
    <path d="M0 0 C-0.97457279 2.63847756 -1.99336017 4.98931598 -3.48103333 7.38310242 C-9.39192586 17.12611145 -8.85842347 26.6859896 -8.76171875 37.76953125 C-8.76322464 39.779111 -8.76666314 41.78869013 -8.77192688 43.79826355 C-8.7762403 47.9951219 -8.7595617 52.19120712 -8.72729492 56.38793945 C-8.68759407 61.72704406 -8.69679956 67.06469386 -8.72152996 72.40384388 C-8.73581982 76.55046686 -8.725541 80.69675916 -8.70801735 84.84335899 C-8.70222808 86.80983373 -8.70337881 88.77634321 -8.71204185 90.74280739 C-8.76457408 108.62143406 -5.85677096 124.22648222 6.375 138.125 C10.1074747 141.64296466 14.22771744 144.02880514 18.75 146.375 C19.38083496 146.70902832 20.01166992 147.04305664 20.66162109 147.38720703 C31.81084093 152.8178749 44.41613963 152.32488086 56.53125 152.3359375 C58.21496689 152.34238684 59.89868274 152.34911666 61.58239746 152.35610962 C65.09890329 152.36801707 68.61531141 152.3717975 72.13183594 152.37060547 C75.69649644 152.37044336 79.26064067 152.38427073 82.82519531 152.41162109 C110.30177798 152.61942487 134.18709649 152.10841379 158.45849609 137.59082031 C162.80515092 135 162.80515092 135 165 135 C162.63954003 147.61722055 145.13809715 160.75840296 135.26953125 167.8203125 C118.03647767 179.30901489 100.31256374 187.6809075 80 192 C78.9962458 192.24947136 78.9962458 192.24947136 77.97221375 192.50398254 C72.7019958 193.78581099 67.78508122 194.30749868 62.37109375 194.30078125 C61.57832535 194.30506638 60.78555695 194.3093515 59.96876526 194.31376648 C58.30071967 194.31946841 56.63264923 194.32004087 54.96459961 194.31567383 C52.46748167 194.31253765 49.97157946 194.33594189 47.47460938 194.36132812 C21.97644904 194.46408728 -0.31729183 187.88246038 -19 170 C-19.68964844 169.38511719 -20.37929688 168.77023437 -21.08984375 168.13671875 C-34.51623156 155.72063339 -44.36230851 135.66164011 -45.31118774 117.42114258 C-45.4989999 111.9289597 -45.52438785 106.43633294 -45.5390625 100.94140625 C-45.55126907 98.90461564 -45.56375585 96.8678267 -45.57650757 94.83103943 C-45.59887563 90.5789692 -45.60852652 86.32707687 -45.61083984 82.07495117 C-45.61612683 76.65701496 -45.66753032 71.24057752 -45.73035622 65.82304478 C-45.77143284 61.62166141 -45.78048358 57.42063458 -45.78095627 53.21906853 C-45.78630064 51.22295701 -45.80298902 49.22683907 -45.83180618 47.23092842 C-46.03008754 32.25558023 -44.09758601 22.76449572 -33.9375 11.125 C-23.63712401 1.69606022 -13.52380157 -1.19327661 0 0 Z " fill="#369FED" transform="translate(462,352)"/>
    <path d="M0 0 C4.06225821 -0.11638426 8.1240863 -0.18731373 12.1875 -0.25 C13.33798828 -0.28351562 14.48847656 -0.31703125 15.67382812 -0.3515625 C16.78564453 -0.36445312 17.89746094 -0.37734375 19.04296875 -0.390625 C20.06414795 -0.41157227 21.08532715 -0.43251953 22.13745117 -0.45410156 C25.81115397 0.12867773 27.39162566 1.38399471 30 4 C31.18408203 6.13574219 31.18408203 6.13574219 32.0078125 8.546875 C32.34498291 9.50859619 32.68215332 10.47031738 33.02954102 11.46118164 C33.39104248 12.5464917 33.75254395 13.63180176 34.125 14.75 C34.73202759 16.50848267 34.73202759 16.50848267 35.35131836 18.30249023 C36.32446493 21.12570301 37.28503985 23.95288465 38.23876953 26.78271484 C39.92832837 31.79538796 41.63615224 36.80173701 43.34509277 41.80783081 C48.19254574 56.01043889 53.01484453 70.22145087 57.80157471 84.44464111 C58.84514594 87.54059568 59.89273662 90.63513914 60.94201374 93.72916126 C61.99494055 96.837741 63.0418707 99.94834117 64.08984375 103.05859375 C64.4826503 104.21327652 64.87545685 105.36795929 65.28016663 106.55763245 C65.63751389 107.6219902 65.99486115 108.68634796 66.36303711 109.78295898 C66.6800206 110.72058578 66.99700409 111.65821259 67.32359314 112.62425232 C68 115 68 115 68 118 C70.63451616 117.01388292 71.77607375 116.4317557 73.09275818 113.89303589 C73.37079788 113.02196198 73.64883759 112.15088806 73.93530273 111.25341797 C74.42117104 109.76949051 74.42117104 109.76949051 74.91685486 108.25558472 C75.25237869 107.17866364 75.58790253 106.10174255 75.93359375 104.9921875 C76.29340836 103.87876984 76.65322296 102.76535217 77.02394104 101.61819458 C78.17602367 98.0415151 79.30691164 94.45852481 80.4375 90.875 C81.19459211 88.51388273 81.95304083 86.1532 82.71289062 83.79296875 C85.80330698 74.17053027 88.84229328 64.53212794 91.84765625 54.8828125 C93.23596921 50.42582709 94.64085428 45.97898256 96.13720703 41.55712891 C96.8622652 39.40821571 97.577495 37.25658698 98.28857422 35.10302734 C99.55825247 31.26033758 100.84265687 27.42277092 102.13354492 23.5871582 C102.67203269 21.97987116 103.20617603 20.37112243 103.73608398 18.76098633 C104.50950705 16.41357949 105.29809711 14.07174904 106.08984375 11.73046875 C106.3222728 11.01376511 106.55470184 10.29706146 106.79417419 9.55863953 C108.18694752 5.49776219 109.41923499 2.48001859 113 0 C116.02441406 -0.45410156 116.02441406 -0.45410156 119.515625 -0.390625 C120.76601562 -0.37773438 122.01640625 -0.36484375 123.3046875 -0.3515625 C125.25761719 -0.30128906 125.25761719 -0.30128906 127.25 -0.25 C128.56742188 -0.23195313 129.88484375 -0.21390625 131.2421875 -0.1953125 C134.49552308 -0.14816271 137.74739625 -0.08236044 141 0 C142.10742188 1.68774414 142.10742188 1.68774414 143 4 C142.43945312 6.34545898 142.43945312 6.34545898 141.28125 8.99609375 C140.85021973 10.01171387 140.41918945 11.02733398 139.97509766 12.07373047 C139.48831543 13.18377441 139.0015332 14.29381836 138.5 15.4375 C137.471938 17.86407561 136.44788202 20.29195935 135.4296875 22.72265625 C135.15667816 23.37129639 134.88366882 24.01993652 134.60238647 24.68823242 C131.05689589 33.16531125 127.85162637 41.77278901 124.625 50.375 C124.03717521 51.93939648 123.44928588 53.50376872 122.86132812 55.06811523 C122.01655549 57.31635391 121.17203488 59.56468491 120.32849121 61.81338501 C118.77105785 65.96219429 117.19730575 70.10400767 115.6015625 74.23828125 C112.31372684 82.75767102 109.09565529 91.30342424 105.8704834 99.84667969 C104.73474452 102.8528799 103.59660055 105.85816089 102.45800781 108.86328125 C99.27897009 117.26072496 96.10249405 125.65652575 93.0625 134.10546875 C92.45776855 135.77355591 92.45776855 135.77355591 91.84082031 137.4753418 C91.14073636 139.4165549 90.45159456 141.36176916 89.77636719 143.31176758 C88.0019089 148.21137006 86.55707508 152.12367124 82 155 C77.62977384 155.71925837 73.35719616 155.69741446 68.9375 155.625 C67.75349609 155.64433594 66.56949219 155.66367187 65.34960938 155.68359375 C64.21201172 155.67714844 63.07441406 155.67070313 61.90234375 155.6640625 C60.86585693 155.65842285 59.82937012 155.6527832 58.76147461 155.64697266 C54.97463174 154.75977138 54.03971109 153.25433899 52 150 C50.76171875 147.18408203 50.76171875 147.18408203 49.6875 144.0078125 C49.26146484 142.77168213 48.83542969 141.53555176 48.39648438 140.26196289 C48.17049561 139.59214386 47.94450684 138.92232483 47.71166992 138.23220825 C46.44498576 134.48163901 45.14235972 130.74351611 43.84375 127.00390625 C43.41020203 125.75186653 43.41020203 125.75186653 42.96789551 124.47453308 C38.61698453 111.9544666 34.04132868 99.51440443 29.5 87.0625 C28.61841174 84.64276925 27.73689988 82.22301065 26.85546875 79.80322266 C24.91687608 74.48223104 22.97685293 69.16176361 21.0353241 63.84184265 C20.35064274 61.96247301 19.66776109 60.08244663 18.98677063 58.20173645 C17.00632581 52.73370064 14.98739542 47.28217246 12.929245 41.84291077 C11.40417843 37.8107198 9.89253306 33.77352593 8.38012695 29.73657227 C7.57980721 27.60659131 6.77572003 25.47802243 5.96801758 23.35083008 C4.79532268 20.25973998 3.63659339 17.16372553 2.48046875 14.06640625 C2.11600143 13.11536514 1.75153412 12.16432404 1.37602234 11.1844635 C0.88474602 9.85674171 0.88474602 9.85674171 0.38354492 8.50219727 C0.09138596 7.72707291 -0.20077301 6.95194855 -0.50178528 6.15333557 C-1.06269446 3.72902804 -0.79539622 2.33085135 0 0 Z " fill="#3A9EEC" transform="translate(93,588)"/>
    <path d="M0 0 C10.38655698 8.11722521 16.32513863 20.07540606 18 33 C18.19008762 36.58408926 18.23060205 40.16137881 18.25 43.75 C18.270625 44.6884375 18.29125 45.626875 18.3125 46.59375 C18.3831918 59.38896614 13.8040195 71.77630674 5 81.1875 C1.34519783 84.49966446 -2.58863342 86.82646953 -7 89 C-7.80179687 89.41507813 -8.60359375 89.83015625 -9.4296875 90.2578125 C-16.6835055 93.3358421 -23.83284444 93.3841174 -31.625 93.4375 C-33.21646851 93.45272705 -33.21646851 93.45272705 -34.84008789 93.46826172 C-47.59374801 93.32729342 -58.39550775 89.47261615 -67.8125 80.6875 C-77.68965016 70.11313924 -80.17859906 56.76026847 -80.1875 42.8125 C-80.20586914 41.3265332 -80.20586914 41.3265332 -80.22460938 39.81054688 C-80.25124679 26.26986335 -77.31946958 14.26236003 -67.8125 4.125 C-48.88935665 -13.37177576 -21.20784665 -13.08064388 0 0 Z " fill="#F5F6F6" transform="translate(342,623)"/>
    <path d="M0 0 C4.20796686 -0.14570522 8.41528166 -0.23421087 12.625 -0.3125 C13.81480469 -0.35439453 15.00460937 -0.39628906 16.23046875 -0.43945312 C17.38417969 -0.45556641 18.53789062 -0.47167969 19.7265625 -0.48828125 C21.31331787 -0.52755737 21.31331787 -0.52755737 22.93212891 -0.56762695 C28.68478338 0.49674688 31.68444814 4.34874134 34.88305664 8.92431641 C35.90169455 10.47714016 36.91014976 12.03667534 37.91015625 13.6015625 C38.46692047 14.45485641 39.02368469 15.30815033 39.59732056 16.18730164 C40.79937584 18.03136537 41.99721475 19.87818306 43.19125366 21.72744751 C46.39713972 26.69163793 49.6343152 31.63539121 52.8671875 36.58203125 C53.53366806 37.60364853 54.20014862 38.62526581 54.88682556 39.67784119 C62.04240607 50.63126598 69.35369748 61.47791031 76.6875 72.3125 C77.88485991 74.08218528 79.08220724 75.85187907 80.27954102 77.62158203 C81.96963741 80.11953065 83.65974932 82.61746841 85.35029602 85.1151123 C89.89428548 91.83270872 94.4003193 98.57500171 98.88931274 105.32943726 C100.63195747 107.95051474 102.37863255 110.56890197 104.125 113.1875 C106.10659068 116.15976112 108.08804427 119.13211315 110.0690918 122.10473633 C113.09079678 126.63854259 116.11336018 131.17173435 119.14453125 135.69921875 C119.60279297 136.38435547 120.06105469 137.06949219 120.53320312 137.77539062 C121.35253282 139.00000707 122.17276204 140.22402247 122.99414062 141.44726562 C124.00495762 142.95895423 125.00302069 144.47914968 126 146 C126.62261719 146.87269531 127.24523437 147.74539063 127.88671875 148.64453125 C128.25410156 149.42183594 128.62148438 150.19914063 129 151 C128.06958008 153.1472168 128.06958008 153.1472168 127 155 C122.81370201 155.26273837 118.62952953 155.42164781 114.4375 155.5625 C113.25607422 155.63791016 112.07464844 155.71332031 110.85742188 155.79101562 C102.26103622 156.00773123 102.26103622 156.00773123 98.75634766 153.20703125 C96.92798891 150.89317611 95.44543781 148.56814312 94 146 C93.22166615 144.80798661 92.44069055 143.61769108 91.65625 142.4296875 C90.9331297 141.24745371 90.21451907 140.06245198 89.5 138.875 C85.15877283 131.79725238 80.66804301 124.82480031 76.125 117.875 C75.48240234 116.89128418 74.83980469 115.90756836 74.17773438 114.89404297 C73.25831055 113.48856201 73.25831055 113.48856201 72.3203125 112.0546875 C71.74442383 111.17393555 71.16853516 110.29318359 70.57519531 109.38574219 C69.25689517 107.38908549 67.91212828 105.41532972 66.5546875 103.4453125 C65 101 65 101 65 99 C62.54269075 99.3716856 61.30726351 99.65723484 59.62231445 101.53686523 C59.2068335 102.20403564 58.79135254 102.87120605 58.36328125 103.55859375 C57.87674072 104.32461914 57.3902002 105.09064453 56.88891602 105.87988281 C56.36869873 106.72389648 55.84848145 107.56791016 55.3125 108.4375 C54.16226578 110.25441767 53.01117902 112.07079582 51.859375 113.88671875 C51.24255859 114.86688965 50.62574219 115.84706055 49.99023438 116.85693359 C46.7659009 121.94894404 43.47457435 126.99677222 40.17733765 132.04177856 C39.08611077 133.71382215 37.99966595 135.38898356 36.91333008 137.06420898 C26.30228606 153.34885697 26.30228606 153.34885697 23 155 C21.0406396 155.08510205 19.07837206 155.10717656 17.1171875 155.09765625 C15.95058594 155.09443359 14.78398437 155.09121094 13.58203125 155.08789062 C12.35871094 155.07951172 11.13539063 155.07113281 9.875 155.0625 C8.64394531 155.05798828 7.41289062 155.05347656 6.14453125 155.04882812 C3.09630608 155.0370133 0.04817686 155.02054028 -3 155 C-3.92847148 152.51542325 -4.1882189 151.42426859 -3.09332275 148.95623779 C-2.60909851 148.23172424 -2.12487427 147.50721069 -1.62597656 146.76074219 C-1.08080383 145.93177429 -0.5356311 145.1028064 0.02606201 144.24871826 C0.6310553 143.35710999 1.23604858 142.46550171 1.859375 141.546875 C2.47838684 140.61385559 3.09739868 139.68083618 3.73516846 138.71954346 C5.72838995 135.72168788 7.73898949 132.73594378 9.75 129.75 C11.05972291 127.78460616 12.36832925 125.81846776 13.67578125 123.8515625 C20.62242176 113.42155597 27.6593922 103.05474835 34.7901001 92.74978638 C36.94844574 89.62833493 39.09849314 86.50116698 41.25 83.375 C41.99765625 82.28960938 42.7453125 81.20421875 43.515625 80.0859375 C45.37495455 76.22048923 45.16790449 75.10978851 44 71 C42.25005092 67.80479399 40.19679489 64.84242588 38.12109375 61.8515625 C37.5212114 60.96947617 36.92132904 60.08738983 36.30326843 59.17857361 C35.02020307 57.29462324 33.73238016 55.41390574 32.44024658 53.53616333 C30.43360715 50.6193414 28.44037082 47.69378778 26.45068359 44.76538086 C21.22921738 37.08632241 15.98120369 29.42560162 10.72077942 21.77319336 C9.5402199 20.0519598 8.3647184 18.32741977 7.19165039 16.60107422 C5.84933286 14.62747894 4.49622162 12.66116632 3.13061523 10.70361328 C2.55384033 9.85395996 1.97706543 9.00430664 1.3828125 8.12890625 C0.89184082 7.41806885 0.40086914 6.70723145 -0.10498047 5.97485352 C-1.2038441 3.55021961 -0.91241703 2.44924587 0 0 Z " fill="#399EED" transform="translate(398,588)"/>
    <path d="M0 0 C0.90017349 -0.00563965 1.80034698 -0.0112793 2.72779846 -0.01708984 C3.71799484 -0.01304138 4.70819122 -0.00899292 5.72839355 -0.00482178 C6.76910507 -0.00832642 7.80981659 -0.01183105 8.88206482 -0.01544189 C12.33546544 -0.02427229 15.78866259 -0.01840538 19.24206543 -0.01165771 C21.63338256 -0.01300399 24.02469943 -0.0149442 26.41601562 -0.01745605 C31.43309123 -0.0204091 36.45009573 -0.01610386 41.46716309 -0.0067749 C47.91049102 0.00461967 54.35365236 -0.00193883 60.79697418 -0.01391983 C65.7364834 -0.02113355 70.67595287 -0.01885274 75.61546326 -0.01366425 C77.9918164 -0.0123264 80.36817311 -0.01398016 82.74452209 -0.01862335 C86.06085829 -0.02368054 89.37692153 -0.01598961 92.6932373 -0.00482178 C94.17853188 -0.01089447 94.17853188 -0.01089447 95.6938324 -0.01708984 C97.04409264 -0.00863037 97.04409264 -0.00863037 98.42163086 0 C99.20624443 0.00075405 99.990858 0.0015081 100.79924774 0.002285 C102.71081543 0.25396729 102.71081543 0.25396729 104.71081543 2.25396729 C105.1683777 6.4025319 105.0348372 10.58308804 105.02331543 14.75396729 C105.03942871 15.92056885 105.05554199 17.08717041 105.07214355 18.28912354 C105.07278809 19.40158447 105.07343262 20.51404541 105.07409668 21.66021729 C105.07707764 22.68437744 105.08005859 23.7085376 105.08312988 24.76373291 C104.96026611 25.58551025 104.83740234 26.4072876 104.71081543 27.25396729 C101.59657782 29.33012569 100.91685122 29.50521607 97.3840332 29.5146637 C96.05912117 29.52529091 96.05912117 29.52529091 94.70744324 29.53613281 C93.74111465 29.5336554 92.77478607 29.53117798 91.7791748 29.52862549 C90.75943069 29.53373642 89.73968658 29.53884735 88.68904114 29.54411316 C85.31082324 29.55803859 81.93280865 29.55705032 78.55456543 29.55474854 C76.21191329 29.5586335 73.86926185 29.56296775 71.52661133 29.56773376 C66.61386838 29.57520209 61.7011973 29.5749 56.78845215 29.56964111 C50.4830785 29.56384209 44.17799816 29.58078521 37.87267303 29.60398579 C33.03434521 29.61869359 28.19608853 29.61959892 23.35774231 29.61647606 C21.03244953 29.61699064 18.7071529 29.62225385 16.38188171 29.63228798 C13.13521057 29.64457935 9.88911745 29.63790473 6.64245605 29.62628174 C5.67612747 29.63392548 4.70979889 29.64156921 3.71418762 29.64944458 C2.83091293 29.64243027 1.94763824 29.63541595 1.03759766 29.62818909 C0.26995338 29.62835683 -0.49769089 29.62852457 -1.28859711 29.6286974 C-3.83844348 29.15108558 -4.72671594 28.2912991 -6.28918457 26.25396729 C-6.66149902 23.74200439 -6.66149902 23.74200439 -6.65246582 20.78131104 C-6.65182129 19.71718994 -6.65117676 18.65306885 -6.6505127 17.55670166 C-6.63439941 16.44617432 -6.61828613 15.33564697 -6.60168457 14.19146729 C-6.60490723 13.07707275 -6.60812988 11.96267822 -6.6114502 10.81451416 C-6.53935164 0.00628463 -6.53935164 0.00628463 0 0 Z " fill="#3AA0ED" transform="translate(823.2891845703125,713.7460327148438)"/>
    <path d="M0 0 C0.88471985 -0.00701431 1.7694397 -0.01402863 2.68096924 -0.02125549 C3.64886887 -0.01361176 4.61676849 -0.00596802 5.61399841 0.00190735 C6.63534882 -0.00174332 7.65669922 -0.00539398 8.70899963 -0.00915527 C12.09213274 -0.01727534 15.47478912 -0.00363919 18.8578949 0.01094055 C21.20294189 0.01145894 23.54798933 0.01094206 25.89303589 0.00942993 C30.81001768 0.00951972 35.72683573 0.01996314 40.64378357 0.03804016 C46.95817971 0.0607399 53.27233671 0.06126983 59.58676243 0.05452251 C64.42934305 0.0511873 69.27186878 0.05780396 74.11443901 0.06765175 C76.44334056 0.07151084 78.77224821 0.07264905 81.10115242 0.0710659 C84.35034532 0.07069662 87.59922708 0.08327663 90.84837341 0.0995636 C91.81829727 0.09708618 92.78822113 0.09460876 93.78753662 0.09205627 C94.66943665 0.09914108 95.55133667 0.10622589 96.45996094 0.11352539 C97.228527 0.11557826 97.99709307 0.11763113 98.78894901 0.11974621 C100.66648865 0.3742218 100.66648865 0.3742218 102.66648865 2.3742218 C102.90940857 4.97212219 102.90940857 4.97212219 102.8969574 8.22187805 C102.8950238 9.3839679 102.89309021 10.54605774 102.89109802 11.74336243 C102.87885193 12.96217102 102.86660583 14.18097961 102.85398865 15.4367218 C102.85302185 17.27073547 102.85302185 17.27073547 102.85203552 19.14179993 C102.80659921 28.23411124 102.80659921 28.23411124 101.66648865 29.3742218 C100.27971285 29.4739619 98.88791337 29.50496842 97.49755859 29.50793457 C96.59875977 29.51219955 95.69996094 29.51646454 94.77392578 29.52085876 C93.78013412 29.52040558 92.78634247 29.51995239 91.76243591 29.51948547 C90.72187042 29.52284409 89.68130493 29.5262027 88.60920715 29.52966309 C85.15042444 29.53920521 81.69168997 29.54111781 78.2328949 29.54219055 C75.84014872 29.5454008 73.44740274 29.54876469 71.05465698 29.55227661 C66.03162684 29.55827601 61.00861392 29.56011567 55.98558044 29.55952454 C49.53438899 29.55942285 43.08330745 29.57307788 36.63214207 29.59029675 C31.68834928 29.60138968 26.7445833 29.60344458 21.80077934 29.60291481 C19.42163145 29.60409892 17.04248296 29.60854458 14.66334724 29.61624718 C11.34213077 29.62599283 8.02115589 29.62319057 4.69993591 29.61714172 C3.70816849 29.62276123 2.71640106 29.62838074 1.69458008 29.63417053 C0.79296143 29.62997604 -0.10865723 29.62578156 -1.03759766 29.62145996 C-2.21646624 29.62227711 -2.21646624 29.62227711 -3.41915035 29.62311077 C-5.33351135 29.3742218 -5.33351135 29.3742218 -7.33351135 27.3742218 C-7.79006932 23.41373358 -7.65753177 19.4204837 -7.64601135 15.4367218 C-7.66212463 14.32619446 -7.67823792 13.21566711 -7.69483948 12.07148743 C-7.69548401 11.00736633 -7.69612854 9.94324524 -7.6967926 8.84687805 C-7.69977356 7.86984924 -7.70275452 6.89282043 -7.70582581 5.88618469 C-7.01257094 1.20887365 -4.47638908 -0.00097651 0 0 Z " fill="#39A0EE" transform="translate(824.3335113525391,587.6257781982422)"/>
    <path d="M0 0 C0.88334518 -0.00563965 1.76669037 -0.0112793 2.67680359 -0.01708984 C3.64829849 -0.01304138 4.6197934 -0.00899292 5.62072754 -0.00482178 C7.1525341 -0.01007874 7.1525341 -0.01007874 8.71528625 -0.01544189 C12.10375693 -0.02427187 15.49202022 -0.01840554 18.88049316 -0.01165771 C21.22696981 -0.013004 23.57344619 -0.01494422 25.91992188 -0.01745605 C30.84284109 -0.02040904 35.76568783 -0.01610405 40.68859863 -0.0067749 C47.01085935 0.00461967 53.33295029 -0.00193886 59.65520477 -0.01391983 C64.50206795 -0.02113371 69.34889063 -0.01885267 74.195755 -0.01366425 C76.52745076 -0.01232644 78.85915016 -0.01398001 81.19084167 -0.01862335 C84.44491369 -0.0236808 87.69870758 -0.01598925 90.95275879 -0.00482178 C91.92425369 -0.00887024 92.8957486 -0.0129187 93.89668274 -0.01708984 C95.22170052 -0.00863037 95.22170052 -0.00863037 96.57348633 0 C97.72828365 0.00113108 97.72828365 0.00113108 98.90641022 0.002285 C100.78674316 0.25396729 100.78674316 0.25396729 102.78674316 2.25396729 C103.04553223 4.74420166 103.04553223 4.74420166 103.05236816 7.84771729 C103.05623535 9.51640869 103.05623535 9.51640869 103.06018066 11.21881104 C103.05244629 12.3854126 103.04471191 13.55201416 103.03674316 14.75396729 C103.04834473 16.50386963 103.04834473 16.50386963 103.06018066 18.28912354 C103.05760254 19.40158447 103.05502441 20.51404541 103.05236816 21.66021729 C103.0501123 22.68437744 103.04785645 23.7085376 103.04553223 24.76373291 C102.78674316 27.25396729 102.78674316 27.25396729 100.78674316 29.25396729 C98.90641022 29.50564957 98.90641022 29.50564957 96.57348633 29.50793457 C95.24846855 29.51639404 95.24846855 29.51639404 93.89668274 29.52502441 C92.43944038 29.51895172 92.43944038 29.51895172 90.95275879 29.51275635 C89.93155441 29.51626099 88.91035004 29.51976562 87.85820007 29.52337646 C84.46972939 29.53220644 81.08146611 29.52634011 77.69299316 29.51959229 C75.34651652 29.52093857 73.00004014 29.52287879 70.65356445 29.52539062 C65.73064524 29.52834361 60.8077985 29.52403862 55.8848877 29.51470947 C49.56262697 29.5033149 43.24053604 29.50987343 36.91828156 29.5218544 C32.07141837 29.52906828 27.2245957 29.52678724 22.37773132 29.52159882 C20.04603556 29.52026101 17.71433617 29.52191458 15.38264465 29.52655792 C12.12857263 29.53161537 8.87477875 29.52392382 5.62072754 29.51275635 C4.64923264 29.51680481 3.67773773 29.52085327 2.67680359 29.52502441 C1.7934584 29.51938477 0.91011322 29.51374512 0 29.50793457 C-0.76986488 29.50718052 -1.53972977 29.50642647 -2.33292389 29.50564957 C-4.21325684 29.25396729 -4.21325684 29.25396729 -6.21325684 27.25396729 C-6.4720459 24.76373291 -6.4720459 24.76373291 -6.47888184 21.66021729 C-6.48145996 20.54775635 -6.48403809 19.43529541 -6.48669434 18.28912354 C-6.47509277 16.53922119 -6.47509277 16.53922119 -6.46325684 14.75396729 C-6.47099121 13.58736572 -6.47872559 12.42076416 -6.48669434 11.21881104 C-6.48411621 10.1063501 -6.48153809 8.99388916 -6.47888184 7.84771729 C-6.47662598 6.82355713 -6.47437012 5.79939697 -6.4720459 4.74420166 C-6.0144436 0.34085876 -3.93372959 0.00385293 0 0 Z " fill="#399FEC" transform="translate(689.2132568359375,713.7460327148438)"/>
    <path d="M0 0 C1.16780707 0.00081715 1.16780707 0.00081715 2.3592062 0.00165081 C3.2524107 -0.00254368 4.1456152 -0.00673817 5.0658865 -0.01105976 C6.04830318 -0.00544025 7.03071987 0.00017925 8.04290676 0.00596905 C9.075471 0.0040707 10.10803524 0.00217236 11.17188931 0.00021648 C14.59764007 -0.00349949 18.02318058 0.00722396 21.44891262 0.01842022 C23.82020448 0.01961158 26.19149682 0.02006528 28.56278896 0.01980877 C33.5369858 0.02137501 38.51111081 0.029676 43.48528957 0.04307842 C49.87711203 0.06007768 56.26885552 0.06389259 62.66069794 0.06313324 C67.55812751 0.06340451 72.45553965 0.06887858 77.35296345 0.07613468 C79.71060396 0.07932776 82.06824646 0.08129024 84.42588902 0.08202839 C87.71362745 0.08418468 91.00128031 0.09291318 94.28900051 0.1036253 C95.76566189 0.10294552 95.76566189 0.10294552 97.27215481 0.10225201 C98.16253948 0.10651699 99.05292416 0.11078197 99.97029018 0.1151762 C101.13753171 0.11768997 101.13753171 0.11768997 102.32835388 0.12025452 C104.10125637 0.24888897 104.10125637 0.24888897 105.10125637 1.24888897 C105.20097423 3.16347179 105.23206226 5.08171214 105.23406887 6.99888897 C105.23535793 8.16420147 105.236647 9.32951397 105.23797512 10.53013897 C105.23410793 11.75732647 105.23024075 12.98451397 105.22625637 14.24888897 C105.23012356 15.47607647 105.23399075 16.70326397 105.23797512 17.96763897 C105.23668606 19.13295147 105.235397 20.29826397 105.23406887 21.49888897 C105.23294094 22.57654522 105.23181301 23.65420147 105.2306509 24.76451397 C105.10125637 27.24888897 105.10125637 27.24888897 104.10125637 28.24888897 C102.72715861 28.34858781 101.34799687 28.37963471 99.97029018 28.38260174 C98.63471317 28.38899921 98.63471317 28.38899921 97.27215481 28.39552593 C96.28771389 28.39507275 95.30327297 28.39461956 94.28900051 28.39415264 C93.25818859 28.39751125 92.22737667 28.40086987 91.16532803 28.40433025 C87.73901082 28.41387227 84.31274231 28.41578497 80.88641262 28.41685772 C78.51608669 28.42006798 76.14576095 28.42343187 73.77543545 28.42694378 C68.79948371 28.43294315 63.82354936 28.43478285 58.84759426 28.4341917 C52.45693653 28.43409002 46.06638977 28.447745 39.67575836 28.46496391 C34.77828867 28.47605697 29.88084603 28.47811175 24.98336506 28.47758198 C22.62654583 28.47876607 20.26972599 28.48321163 17.91291904 28.49091434 C14.62283484 28.50066025 11.3329945 28.49785764 8.04290676 28.49180889 C7.06049007 28.4974284 6.07807339 28.5030479 5.0658865 28.5088377 C4.172682 28.50464321 3.2794775 28.50044872 2.3592062 28.49612713 C1.58066815 28.4966719 0.80213011 28.49721666 0 28.49777794 C-1.89874363 28.24888897 -1.89874363 28.24888897 -3.89874363 26.24888897 C-4.15753269 23.85045147 -4.15753269 23.85045147 -4.16436863 20.87388897 C-4.16694675 19.80654522 -4.16952488 18.73920147 -4.17218113 17.63951397 C-4.16057957 15.96115459 -4.16057957 15.96115459 -4.14874363 14.24888897 C-4.156478 13.12998272 -4.16421238 12.01107647 -4.17218113 10.85826397 C-4.169603 9.79092022 -4.16702488 8.72357647 -4.16436863 7.62388897 C-4.16211277 6.64162334 -4.15985691 5.65935772 -4.15753269 4.64732647 C-3.83393196 1.64821931 -3.0971234 0.40597363 0 0 Z " fill="#369EED" transform="translate(685.8987436294556,588.7511110305786)"/>
    <path d="M0 0 C1.35036598 -0.00422974 1.35036598 -0.00422974 2.72801208 -0.00854492 C3.72337479 -0.00652069 4.71873749 -0.00449646 5.7442627 -0.00241089 C6.78643448 -0.00416321 7.82860626 -0.00591553 8.90235901 -0.00772095 C12.36595295 -0.01214174 15.82949631 -0.00920067 19.29309082 -0.00582886 C21.68823252 -0.00650183 24.08337416 -0.0074718 26.47851562 -0.00872803 C31.5057439 -0.01020531 36.53295444 -0.00804947 41.56018066 -0.00338745 C48.02040773 0.00230985 54.48059325 -0.000969 60.94081879 -0.00695992 C65.88885819 -0.01056471 70.83688767 -0.00942732 75.78492737 -0.00683212 C78.16768905 -0.00616263 80.55045163 -0.00699206 82.93321228 -0.00931168 C86.25697231 -0.01183687 89.58066404 -0.00799949 92.90441895 -0.00241089 C93.89978165 -0.00443512 94.89514435 -0.00645935 95.92066956 -0.00854492 C96.82091354 -0.0057251 97.72115753 -0.00290527 98.64868164 0 C99.43551582 0.00037703 100.22235001 0.00075405 101.03302765 0.0011425 C102.82434082 0.12698364 102.82434082 0.12698364 103.82434082 1.12698364 C103.92393703 2.96857387 103.95514493 4.81395331 103.95715332 6.65823364 C103.95844238 7.77842896 103.95973145 8.89862427 103.96105957 10.05276489 C103.95719238 11.23225708 103.9533252 12.41174927 103.94934082 13.62698364 C103.95320801 14.80647583 103.9570752 15.98596802 103.96105957 17.20120239 C103.95977051 18.32139771 103.95848145 19.44159302 103.95715332 20.59573364 C103.95602539 21.63149536 103.95489746 22.66725708 103.95373535 23.73440552 C103.82434082 26.12698364 103.82434082 26.12698364 102.82434082 27.12698364 C101.43523449 27.22456944 100.04121133 27.25330003 98.64868164 27.25396729 C97.29831566 27.25819702 97.29831566 27.25819702 95.92066956 27.26251221 C94.92530685 27.26048798 93.92994415 27.25846375 92.90441895 27.25637817 C91.34116127 27.25900665 91.34116127 27.25900665 89.74632263 27.26168823 C86.28272869 27.26610902 82.81918533 27.26316796 79.35559082 27.25979614 C76.96044912 27.26046912 74.56530748 27.26143909 72.17016602 27.26269531 C67.14293774 27.26417259 62.1157272 27.26201676 57.08850098 27.25735474 C50.62827391 27.25165744 44.16808839 27.25493628 37.70786285 27.2609272 C32.75982345 27.264532 27.81179397 27.2633946 22.86375427 27.26079941 C20.48099259 27.26012991 18.09823001 27.26095934 15.71546936 27.26327896 C12.39170933 27.26580415 9.06801761 27.26196677 5.7442627 27.25637817 C4.74889999 27.2584024 3.75353729 27.26042664 2.72801208 27.26251221 C1.8277681 27.25969238 0.92752411 27.25687256 0 27.25396729 C-0.78683418 27.25359026 -1.57366837 27.25321323 -2.38434601 27.25282478 C-4.17565918 27.12698364 -4.17565918 27.12698364 -5.17565918 26.12698364 C-5.27525539 24.28539342 -5.30646328 22.44001397 -5.30847168 20.59573364 C-5.30976074 19.47553833 -5.3110498 18.35534302 -5.31237793 17.20120239 C-5.30851074 16.02171021 -5.30464355 14.84221802 -5.30065918 13.62698364 C-5.30452637 12.44749146 -5.30839355 11.26799927 -5.31237793 10.05276489 C-5.31108887 8.93256958 -5.3097998 7.81237427 -5.30847168 6.65823364 C-5.30734375 5.62247192 -5.30621582 4.58671021 -5.30505371 3.51956177 C-5.08774896 -0.49852601 -3.60163317 0.00172579 0 0 Z " fill="#379FEE" transform="translate(823.1756591796875,651.8730163574219)"/>
    <path d="M0 0 C1.15674555 0.00081715 1.15674555 0.00081715 2.3368597 0.00165081 C3.22165005 -0.00254368 4.10644039 -0.00673817 5.01804256 -0.01105976 C5.99110851 -0.00544025 6.96417446 0.00017925 7.96672726 0.00596905 C8.98953793 0.0040707 10.01234859 0.00217236 11.06615353 0.00021648 C14.45943941 -0.0034994 17.85251302 0.00722382 21.24577999 0.01842022 C23.5946516 0.01961158 25.94352369 0.02006527 28.29239559 0.01980877 C33.21951426 0.021375 38.14656042 0.02967586 43.07366085 0.04307842 C49.40494934 0.06007777 55.7361581 0.06389258 62.06746674 0.06313324 C66.91857324 0.06340451 71.76966215 0.0688786 76.62076283 0.07613468 C78.95607463 0.07932773 81.29138844 0.08129023 83.62670231 0.08202839 C86.88330806 0.08418471 90.13982741 0.09291326 93.39641476 0.1036253 C94.85905003 0.10294552 94.85905003 0.10294552 96.35123348 0.10225201 C97.233204 0.10651699 98.11517452 0.11078197 99.02387142 0.1151762 C100.18005144 0.11768997 100.18005144 0.11768997 101.35958862 0.12025452 C103.11687374 0.24888897 103.11687374 0.24888897 104.11687374 1.24888897 C104.21646995 3.0904792 104.24767785 4.93585864 104.24968624 6.78013897 C104.2509753 7.90033428 104.25226437 9.02052959 104.25359249 10.17467022 C104.2497253 11.35416241 104.24585812 12.53365459 104.24187374 13.74888897 C104.24574093 14.92838116 104.24960812 16.10787334 104.25359249 17.32310772 C104.25230343 18.44330303 104.25101437 19.56349834 104.24968624 20.71763897 C104.24855831 21.75340069 104.24743038 22.78916241 104.24626827 23.85631084 C104.11687374 26.24888897 104.11687374 26.24888897 103.11687374 27.24888897 C101.75545439 27.34854578 100.38893014 27.37963383 99.02387142 27.38260174 C97.70091564 27.38899921 97.70091564 27.38899921 96.35123348 27.39552593 C95.3761433 27.39507275 94.40105312 27.39461956 93.39641476 27.39415264 C92.37535641 27.39751125 91.35429806 27.40086987 90.30229855 27.40433025 C86.90844684 27.41387217 83.5146443 27.41578497 80.12077999 27.41685772 C77.7728743 27.42006799 75.42496882 27.42343188 73.07706356 27.42694378 C68.14819023 27.43294313 63.21933445 27.43478285 58.29045773 27.4341917 C51.96033372 27.43409002 45.63032173 27.44774496 39.3002243 27.46496391 C34.4490777 27.47605711 29.59795841 27.47811174 24.74680042 27.47758198 C22.41230985 27.47876605 20.07781866 27.48321152 17.74334049 27.49091434 C14.48438854 27.50066051 11.22568278 27.49785754 7.96672726 27.49180889 C6.50712833 27.50023815 6.50712833 27.50023815 5.01804256 27.5088377 C4.13325222 27.50464321 3.24846188 27.50044872 2.3368597 27.49612713 C1.565696 27.4966719 0.7945323 27.49721666 0 27.49777794 C-1.88312626 27.24888897 -1.88312626 27.24888897 -3.88312626 25.24888897 C-4.14191532 22.94224834 -4.14191532 22.94224834 -4.14875126 20.09263897 C-4.15132938 19.07041241 -4.15390751 18.04818584 -4.15656376 16.99498272 C-4.1449622 15.38816631 -4.1449622 15.38816631 -4.13312626 13.74888897 C-4.14086063 12.67767803 -4.14859501 11.60646709 -4.15656376 10.50279522 C-4.15398563 9.48056866 -4.15140751 8.45834209 -4.14875126 7.40513897 C-4.1464954 6.46476788 -4.14423954 5.52439678 -4.14191532 4.55552959 C-3.81192801 1.61428424 -3.02627263 0.3999763 0 0 Z " fill="#369EEE" transform="translate(686.8831262588501,651.7511110305786)"/>
    <path d="M0 0 C6.3525 -0.0825 12.705 -0.165 19.25 -0.25 C21.2290332 -0.28641602 23.20806641 -0.32283203 25.24707031 -0.36035156 C37.80302884 -0.49486387 49.13405391 0.39353639 59 9 C63.47641293 14.97208644 62.90278327 21.92309724 62 29 C60.22850684 33.41433052 57.54871237 35.2686636 53.328125 37.26171875 C45.68251744 40.20631085 38.88799744 41.14726151 30.76171875 41.09765625 C29.98042603 41.09664917 29.1991333 41.09564209 28.39416504 41.09460449 C25.4919283 41.08939553 22.58971259 41.07543433 19.6875 41.0625 C13.190625 41.041875 6.69375 41.02125 0 41 C0 27.47 0 13.94 0 0 Z " fill="#F1F4F6" transform="translate(573,677)"/>
    <path d="M0 0 C1.74506836 0.00966797 1.74506836 0.00966797 3.52539062 0.01953125 C4.74033203 0.03628906 5.95527344 0.05304687 7.20703125 0.0703125 C8.43357422 0.07933594 9.66011719 0.08835937 10.92382812 0.09765625 C13.9559242 0.12125233 16.98763063 0.15417409 20.01953125 0.1953125 C20.90483256 2.62511676 21.18813105 3.77659601 20.20605469 6.21557617 C19.54911621 7.27869019 19.54911621 7.27869019 18.87890625 8.36328125 C18.14667847 9.56670166 18.14667847 9.56670166 17.3996582 10.79443359 C16.59274536 12.07568115 16.59274536 12.07568115 15.76953125 13.3828125 C15.22321045 14.27049316 14.67688965 15.15817383 14.11401367 16.07275391 C9.29894025 23.85773627 4.33710308 31.54848934 -0.68115234 39.20361328 C-3.52331903 43.5603205 -6.30844938 47.95407624 -9.10546875 52.33984375 C-10.65503282 54.6997007 -12.25228431 56.96487446 -13.98046875 59.1953125 C-16.30511762 58.80781964 -17.65303821 58.52533655 -19.33666992 56.82836914 C-19.72830322 56.25981201 -20.11993652 55.69125488 -20.5234375 55.10546875 C-20.95720703 54.48607422 -21.39097656 53.86667969 -21.83789062 53.22851562 C-22.27681641 52.57818359 -22.71574219 51.92785156 -23.16796875 51.2578125 C-23.61849609 50.61134766 -24.06902344 49.96488281 -24.53320312 49.29882812 C-28.10946974 44.13549267 -29.63230117 41.57574904 -28.98046875 35.1953125 C-27.45656102 31.78884298 -25.49163681 28.7079864 -23.48046875 25.5703125 C-22.93527588 24.69455566 -22.39008301 23.81879883 -21.82836914 22.91650391 C-20.7327925 21.15809129 -19.63139367 19.40329149 -18.52392578 17.65234375 C-17.15568341 15.47423695 -15.82166293 13.28149364 -14.5078125 11.0703125 C-14.14945312 10.47041504 -13.79109375 9.87051758 -13.421875 9.25244141 C-12.92494141 8.4197876 -12.92494141 8.4197876 -12.41796875 7.5703125 C-8.94896401 1.76625725 -6.8609907 -0.06693649 0 0 Z " fill="#3A9FED" transform="translate(502.98046875,587.8046875)"/>
</svg>
